<svg width="806" height="806" viewBox="0 0 806 806" fill="none" xmlns="http://www.w3.org/2000/svg">
<rect width="806" height="806" fill="white"/>
<path d="M419.296 330.624C419.296 339.631 412 346.933 403 346.933C394 346.933 386.704 339.631 386.704 330.624C386.704 321.616 394 314.314 403 314.314C412 314.314 419.296 321.616 419.296 330.624Z" fill="url(#paint0_radial_175_105)"/>
<path d="M419.296 279.186C419.296 288.193 412 295.495 403 295.495C394 295.495 386.704 288.193 386.704 279.186C386.704 270.178 394 262.876 403 262.876C412 262.876 419.296 270.178 419.296 279.186Z" fill="url(#paint1_radial_175_105)"/>
<path d="M419.296 227.748C419.296 236.755 412 244.057 403 244.057C394 244.057 386.704 236.755 386.704 227.748C386.704 218.74 394 211.438 403 211.438C412 211.438 419.296 218.74 419.296 227.748Z" fill="url(#paint2_radial_175_105)"/>
<path d="M419.296 176.31C419.296 185.317 412 192.619 403 192.619C394 192.619 386.704 185.317 386.704 176.31C386.704 167.302 394 160 403 160C412 160 419.296 167.302 419.296 176.31Z" fill="url(#paint3_radial_175_105)"/>
<path d="M419.296 536.376C419.296 545.384 412 552.686 403 552.686C394 552.686 386.704 545.384 386.704 536.376C386.704 527.369 394 520.067 403 520.067C412 520.067 419.296 527.369 419.296 536.376Z" fill="url(#paint4_radial_175_105)"/>
<path d="M419.296 484.938C419.296 493.946 412 501.248 403 501.248C394 501.248 386.704 493.946 386.704 484.938C386.704 475.931 394 468.629 403 468.629C412 468.629 419.296 475.931 419.296 484.938Z" fill="url(#paint5_radial_175_105)"/>
<path d="M419.296 433.5C419.296 442.508 412 449.81 403 449.81C394 449.81 386.704 442.508 386.704 433.5C386.704 424.492 394 417.19 403 417.19C412 417.19 419.296 424.492 419.296 433.5Z" fill="url(#paint6_radial_175_105)"/>
<path d="M419.296 690.69C419.296 699.698 412 707 403 707C394 707 386.704 699.698 386.704 690.69C386.704 681.683 394 674.381 403 674.381C412 674.381 419.296 681.683 419.296 690.69Z" fill="url(#paint7_radial_175_105)"/>
<path d="M419.296 639.252C419.296 648.26 412 655.562 403 655.562C394 655.562 386.704 648.26 386.704 639.252C386.704 630.245 394 622.943 403 622.943C412 622.943 419.296 630.245 419.296 639.252Z" fill="url(#paint8_radial_175_105)"/>
<path d="M419.296 587.814C419.296 596.822 412 604.124 403 604.124C394 604.124 386.704 596.822 386.704 587.814C386.704 578.807 394 571.505 403 571.505C412 571.505 419.296 578.807 419.296 587.814Z" fill="url(#paint9_radial_175_105)"/>
<path d="M419.296 382.062C419.296 391.07 412 398.372 403 398.372C394 398.372 386.704 391.07 386.704 382.062C386.704 373.054 394 365.752 403 365.752C412 365.752 419.296 373.054 419.296 382.062Z" fill="url(#paint10_radial_175_105)"/>
<path d="M177.366 330.624C177.366 339.631 170.07 346.933 161.07 346.933C152.071 346.933 144.775 339.631 144.775 330.624C144.775 321.616 152.071 314.314 161.07 314.314C170.07 314.314 177.366 321.616 177.366 330.624Z" fill="url(#paint11_radial_175_105)"/>
<path d="M177.366 279.186C177.366 288.193 170.07 295.495 161.07 295.495C152.071 295.495 144.775 288.193 144.775 279.186C144.775 270.178 152.071 262.876 161.07 262.876C170.07 262.876 177.366 270.178 177.366 279.186Z" fill="url(#paint12_radial_175_105)"/>
<path d="M177.366 227.748C177.366 236.755 170.07 244.057 161.07 244.057C152.071 244.057 144.775 236.755 144.775 227.748C144.775 218.74 152.071 211.438 161.07 211.438C170.07 211.438 177.366 218.74 177.366 227.748Z" fill="url(#paint13_radial_175_105)"/>
<path d="M177.366 176.31C177.366 185.317 170.07 192.619 161.07 192.619C152.071 192.619 144.775 185.317 144.775 176.31C144.775 167.302 152.071 160 161.07 160C170.07 160 177.366 167.302 177.366 176.31Z" fill="url(#paint14_radial_175_105)"/>
<path d="M177.366 382.062C177.366 391.07 170.07 398.372 161.07 398.372C152.071 398.372 144.775 391.07 144.775 382.062C144.775 373.054 152.071 365.752 161.07 365.752C170.07 365.752 177.366 373.054 177.366 382.062Z" fill="url(#paint15_radial_175_105)"/>
<path d="M226.254 330.624C226.254 339.631 218.958 346.933 209.958 346.933C200.958 346.933 193.662 339.631 193.662 330.624C193.662 321.616 200.958 314.314 209.958 314.314C218.958 314.314 226.254 321.616 226.254 330.624Z" fill="url(#paint16_radial_175_105)"/>
<path d="M226.254 279.186C226.254 288.193 218.958 295.495 209.958 295.495C200.958 295.495 193.662 288.193 193.662 279.186C193.662 270.178 200.958 262.876 209.958 262.876C218.958 262.876 226.254 270.178 226.254 279.186Z" fill="url(#paint17_radial_175_105)"/>
<path d="M226.254 227.748C226.254 236.755 218.958 244.057 209.958 244.057C200.958 244.057 193.662 236.755 193.662 227.748C193.662 218.74 200.958 211.438 209.958 211.438C218.958 211.438 226.254 218.74 226.254 227.748Z" fill="url(#paint18_radial_175_105)"/>
<path d="M226.254 382.062C226.254 391.07 218.958 398.372 209.958 398.372C200.958 398.372 193.662 391.07 193.662 382.062C193.662 373.054 200.958 365.752 209.958 365.752C218.958 365.752 226.254 373.054 226.254 382.062Z" fill="url(#paint19_radial_175_105)"/>
<path d="M275.141 330.624C275.141 339.631 267.845 346.933 258.845 346.933C249.845 346.933 242.549 339.631 242.549 330.624C242.549 321.616 249.845 314.314 258.845 314.314C267.845 314.314 275.141 321.616 275.141 330.624Z" fill="url(#paint20_radial_175_105)"/>
<path d="M275.141 279.186C275.141 288.193 267.845 295.495 258.845 295.495C249.845 295.495 242.549 288.193 242.549 279.186C242.549 270.178 249.845 262.876 258.845 262.876C267.845 262.876 275.141 270.178 275.141 279.186Z" fill="url(#paint21_radial_175_105)"/>
<path d="M275.141 227.748C275.141 236.755 267.845 244.057 258.845 244.057C249.845 244.057 242.549 236.755 242.549 227.748C242.549 218.74 249.845 211.438 258.845 211.438C267.845 211.438 275.141 218.74 275.141 227.748Z" fill="url(#paint22_radial_175_105)"/>
<path d="M79.5915 176.31C79.5915 185.317 72.2957 192.619 63.2958 192.619C54.2959 192.619 47 185.317 47 176.31C47 167.302 54.2959 160 63.2958 160C72.2957 160 79.5915 167.302 79.5915 176.31Z" fill="url(#paint23_radial_175_105)"/>
<path d="M128.479 176.31C128.479 185.317 121.183 192.619 112.183 192.619C103.183 192.619 95.8873 185.317 95.8873 176.31C95.8873 167.302 103.183 160 112.183 160C121.183 160 128.479 167.302 128.479 176.31Z" fill="url(#paint24_radial_175_105)"/>
<path d="M710.113 176.31C710.113 185.317 702.817 192.619 693.817 192.619C684.817 192.619 677.521 185.317 677.521 176.31C677.521 167.302 684.817 160 693.817 160C702.817 160 710.113 167.302 710.113 176.31Z" fill="url(#paint25_radial_175_105)"/>
<path d="M759 176.31C759 185.317 751.704 192.619 742.704 192.619C733.704 192.619 726.408 185.317 726.408 176.31C726.408 167.302 733.704 160 742.704 160C751.704 160 759 167.302 759 176.31Z" fill="url(#paint26_radial_175_105)"/>
<path d="M275.141 382.062C275.141 391.07 267.845 398.372 258.845 398.372C249.845 398.372 242.549 391.07 242.549 382.062C242.549 373.054 249.845 365.752 258.845 365.752C267.845 365.752 275.141 373.054 275.141 382.062Z" fill="url(#paint27_radial_175_105)"/>
<path d="M563.451 330.624C563.451 339.631 556.155 346.933 547.155 346.933C538.155 346.933 530.859 339.631 530.859 330.624C530.859 321.616 538.155 314.314 547.155 314.314C556.155 314.314 563.451 321.616 563.451 330.624Z" fill="url(#paint28_radial_175_105)"/>
<path d="M563.451 279.186C563.451 288.193 556.155 295.495 547.155 295.495C538.155 295.495 530.859 288.193 530.859 279.186C530.859 270.178 538.155 262.876 547.155 262.876C556.155 262.876 563.451 270.178 563.451 279.186Z" fill="url(#paint29_radial_175_105)"/>
<path d="M563.451 227.748C563.451 236.755 556.155 244.057 547.155 244.057C538.155 244.057 530.859 236.755 530.859 227.748C530.859 218.74 538.155 211.438 547.155 211.438C556.155 211.438 563.451 218.74 563.451 227.748Z" fill="url(#paint30_radial_175_105)"/>
<path d="M468.183 330.624C468.183 339.631 460.887 346.933 451.887 346.933C442.887 346.933 435.592 339.631 435.592 330.624C435.592 321.616 442.887 314.314 451.887 314.314C460.887 314.314 468.183 321.616 468.183 330.624Z" fill="url(#paint31_radial_175_105)"/>
<path d="M468.183 227.748C468.183 236.755 460.887 244.057 451.887 244.057C442.887 244.057 435.592 236.755 435.592 227.748C435.592 218.74 442.887 211.438 451.887 211.438C460.887 211.438 468.183 218.74 468.183 227.748Z" fill="url(#paint32_radial_175_105)"/>
<path d="M370.409 330.624C370.409 339.631 363.113 346.933 354.113 346.933C345.113 346.933 337.817 339.631 337.817 330.624C337.817 321.616 345.113 314.314 354.113 314.314C363.113 314.314 370.409 321.616 370.409 330.624Z" fill="url(#paint33_radial_175_105)"/>
<path d="M370.409 227.748C370.409 236.755 363.113 244.057 354.113 244.057C345.113 244.057 337.817 236.755 337.817 227.748C337.817 218.74 345.113 211.438 354.113 211.438C363.113 211.438 370.409 218.74 370.409 227.748Z" fill="url(#paint34_radial_175_105)"/>
<path d="M710.113 330.624C710.113 339.631 702.817 346.933 693.817 346.933C684.817 346.933 677.521 339.631 677.521 330.624C677.521 321.616 684.817 314.314 693.817 314.314C702.817 314.314 710.113 321.616 710.113 330.624Z" fill="url(#paint35_radial_175_105)"/>
<path d="M710.113 227.748C710.113 236.755 702.817 244.057 693.817 244.057C684.817 244.057 677.521 236.755 677.521 227.748C677.521 218.74 684.817 211.438 693.817 211.438C702.817 211.438 710.113 218.74 710.113 227.748Z" fill="url(#paint36_radial_175_105)"/>
<path d="M128.479 330.624C128.479 339.631 121.183 346.933 112.183 346.933C103.183 346.933 95.8873 339.631 95.8873 330.624C95.8873 321.616 103.183 314.314 112.183 314.314C121.183 314.314 128.479 321.616 128.479 330.624Z" fill="url(#paint37_radial_175_105)"/>
<path d="M128.479 227.748C128.479 236.755 121.183 244.057 112.183 244.057C103.183 244.057 95.8873 236.755 95.8873 227.748C95.8873 218.74 103.183 211.438 112.183 211.438C121.183 211.438 128.479 218.74 128.479 227.748Z" fill="url(#paint38_radial_175_105)"/>
<path d="M563.451 382.062C563.451 391.07 556.155 398.372 547.155 398.372C538.155 398.372 530.859 391.07 530.859 382.062C530.859 373.054 538.155 365.752 547.155 365.752C556.155 365.752 563.451 373.054 563.451 382.062Z" fill="url(#paint39_radial_175_105)"/>
<path d="M515.817 330.624C515.817 339.631 508.521 346.933 499.521 346.933C490.521 346.933 483.225 339.631 483.225 330.624C483.225 321.616 490.521 314.314 499.521 314.314C508.521 314.314 515.817 321.616 515.817 330.624Z" fill="url(#paint40_radial_175_105)"/>
<path d="M515.817 279.186C515.817 288.193 508.521 295.495 499.521 295.495C490.521 295.495 483.225 288.193 483.225 279.186C483.225 270.178 490.521 262.876 499.521 262.876C508.521 262.876 515.817 270.178 515.817 279.186Z" fill="url(#paint41_radial_175_105)"/>
<path d="M515.817 382.062C515.817 391.07 508.521 398.372 499.521 398.372C490.521 398.372 483.225 391.07 483.225 382.062C483.225 373.054 490.521 365.752 499.521 365.752C508.521 365.752 515.817 373.054 515.817 382.062Z" fill="url(#paint42_radial_175_105)"/>
<path d="M324.028 330.624C324.028 339.631 316.732 346.933 307.732 346.933C298.733 346.933 291.437 339.631 291.437 330.624C291.437 321.616 298.733 314.314 307.732 314.314C316.732 314.314 324.028 321.616 324.028 330.624Z" fill="url(#paint43_radial_175_105)"/>
<path d="M324.028 279.186C324.028 288.193 316.732 295.495 307.732 295.495C298.733 295.495 291.437 288.193 291.437 279.186C291.437 270.178 298.733 262.876 307.732 262.876C316.732 262.876 324.028 270.178 324.028 279.186Z" fill="url(#paint44_radial_175_105)"/>
<path d="M324.028 382.062C324.028 391.07 316.732 398.372 307.732 398.372C298.733 398.372 291.437 391.07 291.437 382.062C291.437 373.054 298.733 365.752 307.732 365.752C316.732 365.752 324.028 373.054 324.028 382.062Z" fill="url(#paint45_radial_175_105)"/>
<path d="M612.338 330.624C612.338 339.631 605.042 346.933 596.042 346.933C587.042 346.933 579.747 339.631 579.747 330.624C579.747 321.616 587.042 314.314 596.042 314.314C605.042 314.314 612.338 321.616 612.338 330.624Z" fill="url(#paint46_radial_175_105)"/>
<path d="M612.338 279.186C612.338 288.193 605.042 295.495 596.042 295.495C587.042 295.495 579.747 288.193 579.747 279.186C579.747 270.178 587.042 262.876 596.042 262.876C605.042 262.876 612.338 270.178 612.338 279.186Z" fill="url(#paint47_radial_175_105)"/>
<path d="M612.338 227.748C612.338 236.755 605.042 244.057 596.042 244.057C587.042 244.057 579.747 236.755 579.747 227.748C579.747 218.74 587.042 211.438 596.042 211.438C605.042 211.438 612.338 218.74 612.338 227.748Z" fill="url(#paint48_radial_175_105)"/>
<path d="M612.338 382.062C612.338 391.07 605.042 398.372 596.042 398.372C587.042 398.372 579.747 391.07 579.747 382.062C579.747 373.054 587.042 365.752 596.042 365.752C605.042 365.752 612.338 373.054 612.338 382.062Z" fill="url(#paint49_radial_175_105)"/>
<path d="M661.225 330.624C661.225 339.631 653.93 346.933 644.93 346.933C635.93 346.933 628.634 339.631 628.634 330.624C628.634 321.616 635.93 314.314 644.93 314.314C653.93 314.314 661.225 321.616 661.225 330.624Z" fill="url(#paint50_radial_175_105)"/>
<path d="M661.225 279.186C661.225 288.193 653.93 295.495 644.93 295.495C635.93 295.495 628.634 288.193 628.634 279.186C628.634 270.178 635.93 262.876 644.93 262.876C653.93 262.876 661.225 270.178 661.225 279.186Z" fill="url(#paint51_radial_175_105)"/>
<path d="M661.225 227.748C661.225 236.755 653.93 244.057 644.93 244.057C635.93 244.057 628.634 236.755 628.634 227.748C628.634 218.74 635.93 211.438 644.93 211.438C653.93 211.438 661.225 218.74 661.225 227.748Z" fill="url(#paint52_radial_175_105)"/>
<path d="M661.225 176.31C661.225 185.317 653.93 192.619 644.93 192.619C635.93 192.619 628.634 185.317 628.634 176.31C628.634 167.302 635.93 160 644.93 160C653.93 160 661.225 167.302 661.225 176.31Z" fill="url(#paint53_radial_175_105)"/>
<path d="M661.225 382.062C661.225 391.07 653.93 398.372 644.93 398.372C635.93 398.372 628.634 391.07 628.634 382.062C628.634 373.054 635.93 365.752 644.93 365.752C653.93 365.752 661.225 373.054 661.225 382.062Z" fill="url(#paint54_radial_175_105)"/>
<defs>
<radialGradient id="paint0_radial_175_105" cx="0" cy="0" r="1" gradientUnits="userSpaceOnUse" gradientTransform="translate(402.006 333.639) rotate(-90) scale(173.639 226.017)">
<stop stop-color="#6D6986"/>
<stop offset="1" stop-color="#CDCDCD"/>
</radialGradient>
<radialGradient id="paint1_radial_175_105" cx="0" cy="0" r="1" gradientUnits="userSpaceOnUse" gradientTransform="translate(402.006 333.639) rotate(-90) scale(173.639 226.017)">
<stop stop-color="#6D6986"/>
<stop offset="1" stop-color="#CDCDCD"/>
</radialGradient>
<radialGradient id="paint2_radial_175_105" cx="0" cy="0" r="1" gradientUnits="userSpaceOnUse" gradientTransform="translate(402.006 333.639) rotate(-90) scale(173.639 226.017)">
<stop stop-color="#6D6986"/>
<stop offset="1" stop-color="#CDCDCD"/>
</radialGradient>
<radialGradient id="paint3_radial_175_105" cx="0" cy="0" r="1" gradientUnits="userSpaceOnUse" gradientTransform="translate(402.006 333.639) rotate(-90) scale(173.639 226.017)">
<stop stop-color="#6D6986"/>
<stop offset="1" stop-color="#CDCDCD"/>
</radialGradient>
<radialGradient id="paint4_radial_175_105" cx="0" cy="0" r="1" gradientUnits="userSpaceOnUse" gradientTransform="translate(402.006 333.639) rotate(-90) scale(173.639 226.017)">
<stop stop-color="#6D6986"/>
<stop offset="1" stop-color="#CDCDCD"/>
</radialGradient>
<radialGradient id="paint5_radial_175_105" cx="0" cy="0" r="1" gradientUnits="userSpaceOnUse" gradientTransform="translate(402.006 333.639) rotate(-90) scale(173.639 226.017)">
<stop stop-color="#6D6986"/>
<stop offset="1" stop-color="#CDCDCD"/>
</radialGradient>
<radialGradient id="paint6_radial_175_105" cx="0" cy="0" r="1" gradientUnits="userSpaceOnUse" gradientTransform="translate(402.006 333.639) rotate(-90) scale(173.639 226.017)">
<stop stop-color="#6D6986"/>
<stop offset="1" stop-color="#CDCDCD"/>
</radialGradient>
<radialGradient id="paint7_radial_175_105" cx="0" cy="0" r="1" gradientUnits="userSpaceOnUse" gradientTransform="translate(402.006 333.639) rotate(-90) scale(173.639 226.017)">
<stop stop-color="#6D6986"/>
<stop offset="1" stop-color="#CDCDCD"/>
</radialGradient>
<radialGradient id="paint8_radial_175_105" cx="0" cy="0" r="1" gradientUnits="userSpaceOnUse" gradientTransform="translate(402.006 333.639) rotate(-90) scale(173.639 226.017)">
<stop stop-color="#6D6986"/>
<stop offset="1" stop-color="#CDCDCD"/>
</radialGradient>
<radialGradient id="paint9_radial_175_105" cx="0" cy="0" r="1" gradientUnits="userSpaceOnUse" gradientTransform="translate(402.006 333.639) rotate(-90) scale(173.639 226.017)">
<stop stop-color="#6D6986"/>
<stop offset="1" stop-color="#CDCDCD"/>
</radialGradient>
<radialGradient id="paint10_radial_175_105" cx="0" cy="0" r="1" gradientUnits="userSpaceOnUse" gradientTransform="translate(402.006 333.639) rotate(-90) scale(173.639 226.017)">
<stop stop-color="#6D6986"/>
<stop offset="1" stop-color="#CDCDCD"/>
</radialGradient>
<radialGradient id="paint11_radial_175_105" cx="0" cy="0" r="1" gradientUnits="userSpaceOnUse" gradientTransform="translate(402.006 333.639) rotate(-90) scale(173.639 226.017)">
<stop stop-color="#6D6986"/>
<stop offset="1" stop-color="#CDCDCD"/>
</radialGradient>
<radialGradient id="paint12_radial_175_105" cx="0" cy="0" r="1" gradientUnits="userSpaceOnUse" gradientTransform="translate(402.006 333.639) rotate(-90) scale(173.639 226.017)">
<stop stop-color="#6D6986"/>
<stop offset="1" stop-color="#CDCDCD"/>
</radialGradient>
<radialGradient id="paint13_radial_175_105" cx="0" cy="0" r="1" gradientUnits="userSpaceOnUse" gradientTransform="translate(402.006 333.639) rotate(-90) scale(173.639 226.017)">
<stop stop-color="#6D6986"/>
<stop offset="1" stop-color="#CDCDCD"/>
</radialGradient>
<radialGradient id="paint14_radial_175_105" cx="0" cy="0" r="1" gradientUnits="userSpaceOnUse" gradientTransform="translate(402.006 333.639) rotate(-90) scale(173.639 226.017)">
<stop stop-color="#6D6986"/>
<stop offset="1" stop-color="#CDCDCD"/>
</radialGradient>
<radialGradient id="paint15_radial_175_105" cx="0" cy="0" r="1" gradientUnits="userSpaceOnUse" gradientTransform="translate(402.006 333.639) rotate(-90) scale(173.639 226.017)">
<stop stop-color="#6D6986"/>
<stop offset="1" stop-color="#CDCDCD"/>
</radialGradient>
<radialGradient id="paint16_radial_175_105" cx="0" cy="0" r="1" gradientUnits="userSpaceOnUse" gradientTransform="translate(402.006 333.639) rotate(-90) scale(173.639 226.017)">
<stop stop-color="#6D6986"/>
<stop offset="1" stop-color="#CDCDCD"/>
</radialGradient>
<radialGradient id="paint17_radial_175_105" cx="0" cy="0" r="1" gradientUnits="userSpaceOnUse" gradientTransform="translate(402.006 333.639) rotate(-90) scale(173.639 226.017)">
<stop stop-color="#6D6986"/>
<stop offset="1" stop-color="#CDCDCD"/>
</radialGradient>
<radialGradient id="paint18_radial_175_105" cx="0" cy="0" r="1" gradientUnits="userSpaceOnUse" gradientTransform="translate(402.006 333.639) rotate(-90) scale(173.639 226.017)">
<stop stop-color="#6D6986"/>
<stop offset="1" stop-color="#CDCDCD"/>
</radialGradient>
<radialGradient id="paint19_radial_175_105" cx="0" cy="0" r="1" gradientUnits="userSpaceOnUse" gradientTransform="translate(402.006 333.639) rotate(-90) scale(173.639 226.017)">
<stop stop-color="#6D6986"/>
<stop offset="1" stop-color="#CDCDCD"/>
</radialGradient>
<radialGradient id="paint20_radial_175_105" cx="0" cy="0" r="1" gradientUnits="userSpaceOnUse" gradientTransform="translate(402.006 333.639) rotate(-90) scale(173.639 226.017)">
<stop stop-color="#6D6986"/>
<stop offset="1" stop-color="#CDCDCD"/>
</radialGradient>
<radialGradient id="paint21_radial_175_105" cx="0" cy="0" r="1" gradientUnits="userSpaceOnUse" gradientTransform="translate(402.006 333.639) rotate(-90) scale(173.639 226.017)">
<stop stop-color="#6D6986"/>
<stop offset="1" stop-color="#CDCDCD"/>
</radialGradient>
<radialGradient id="paint22_radial_175_105" cx="0" cy="0" r="1" gradientUnits="userSpaceOnUse" gradientTransform="translate(402.006 333.639) rotate(-90) scale(173.639 226.017)">
<stop stop-color="#6D6986"/>
<stop offset="1" stop-color="#CDCDCD"/>
</radialGradient>
<radialGradient id="paint23_radial_175_105" cx="0" cy="0" r="1" gradientUnits="userSpaceOnUse" gradientTransform="translate(402.006 333.639) rotate(-90) scale(173.639 226.017)">
<stop stop-color="#6D6986"/>
<stop offset="1" stop-color="#CDCDCD"/>
</radialGradient>
<radialGradient id="paint24_radial_175_105" cx="0" cy="0" r="1" gradientUnits="userSpaceOnUse" gradientTransform="translate(402.006 333.639) rotate(-90) scale(173.639 226.017)">
<stop stop-color="#6D6986"/>
<stop offset="1" stop-color="#CDCDCD"/>
</radialGradient>
<radialGradient id="paint25_radial_175_105" cx="0" cy="0" r="1" gradientUnits="userSpaceOnUse" gradientTransform="translate(402.006 333.639) rotate(-90) scale(173.639 226.017)">
<stop stop-color="#6D6986"/>
<stop offset="1" stop-color="#CDCDCD"/>
</radialGradient>
<radialGradient id="paint26_radial_175_105" cx="0" cy="0" r="1" gradientUnits="userSpaceOnUse" gradientTransform="translate(402.006 333.639) rotate(-90) scale(173.639 226.017)">
<stop stop-color="#6D6986"/>
<stop offset="1" stop-color="#CDCDCD"/>
</radialGradient>
<radialGradient id="paint27_radial_175_105" cx="0" cy="0" r="1" gradientUnits="userSpaceOnUse" gradientTransform="translate(402.006 333.639) rotate(-90) scale(173.639 226.017)">
<stop stop-color="#6D6986"/>
<stop offset="1" stop-color="#CDCDCD"/>
</radialGradient>
<radialGradient id="paint28_radial_175_105" cx="0" cy="0" r="1" gradientUnits="userSpaceOnUse" gradientTransform="translate(402.006 333.639) rotate(-90) scale(173.639 226.017)">
<stop stop-color="#6D6986"/>
<stop offset="1" stop-color="#CDCDCD"/>
</radialGradient>
<radialGradient id="paint29_radial_175_105" cx="0" cy="0" r="1" gradientUnits="userSpaceOnUse" gradientTransform="translate(402.006 333.639) rotate(-90) scale(173.639 226.017)">
<stop stop-color="#6D6986"/>
<stop offset="1" stop-color="#CDCDCD"/>
</radialGradient>
<radialGradient id="paint30_radial_175_105" cx="0" cy="0" r="1" gradientUnits="userSpaceOnUse" gradientTransform="translate(402.006 333.639) rotate(-90) scale(173.639 226.017)">
<stop stop-color="#6D6986"/>
<stop offset="1" stop-color="#CDCDCD"/>
</radialGradient>
<radialGradient id="paint31_radial_175_105" cx="0" cy="0" r="1" gradientUnits="userSpaceOnUse" gradientTransform="translate(402.006 333.639) rotate(-90) scale(173.639 226.017)">
<stop stop-color="#6D6986"/>
<stop offset="1" stop-color="#CDCDCD"/>
</radialGradient>
<radialGradient id="paint32_radial_175_105" cx="0" cy="0" r="1" gradientUnits="userSpaceOnUse" gradientTransform="translate(402.006 333.639) rotate(-90) scale(173.639 226.017)">
<stop stop-color="#6D6986"/>
<stop offset="1" stop-color="#CDCDCD"/>
</radialGradient>
<radialGradient id="paint33_radial_175_105" cx="0" cy="0" r="1" gradientUnits="userSpaceOnUse" gradientTransform="translate(402.006 333.639) rotate(-90) scale(173.639 226.017)">
<stop stop-color="#6D6986"/>
<stop offset="1" stop-color="#CDCDCD"/>
</radialGradient>
<radialGradient id="paint34_radial_175_105" cx="0" cy="0" r="1" gradientUnits="userSpaceOnUse" gradientTransform="translate(402.006 333.639) rotate(-90) scale(173.639 226.017)">
<stop stop-color="#6D6986"/>
<stop offset="1" stop-color="#CDCDCD"/>
</radialGradient>
<radialGradient id="paint35_radial_175_105" cx="0" cy="0" r="1" gradientUnits="userSpaceOnUse" gradientTransform="translate(402.006 333.639) rotate(-90) scale(173.639 226.017)">
<stop stop-color="#6D6986"/>
<stop offset="1" stop-color="#CDCDCD"/>
</radialGradient>
<radialGradient id="paint36_radial_175_105" cx="0" cy="0" r="1" gradientUnits="userSpaceOnUse" gradientTransform="translate(402.006 333.639) rotate(-90) scale(173.639 226.017)">
<stop stop-color="#6D6986"/>
<stop offset="1" stop-color="#CDCDCD"/>
</radialGradient>
<radialGradient id="paint37_radial_175_105" cx="0" cy="0" r="1" gradientUnits="userSpaceOnUse" gradientTransform="translate(402.006 333.639) rotate(-90) scale(173.639 226.017)">
<stop stop-color="#6D6986"/>
<stop offset="1" stop-color="#CDCDCD"/>
</radialGradient>
<radialGradient id="paint38_radial_175_105" cx="0" cy="0" r="1" gradientUnits="userSpaceOnUse" gradientTransform="translate(402.006 333.639) rotate(-90) scale(173.639 226.017)">
<stop stop-color="#6D6986"/>
<stop offset="1" stop-color="#CDCDCD"/>
</radialGradient>
<radialGradient id="paint39_radial_175_105" cx="0" cy="0" r="1" gradientUnits="userSpaceOnUse" gradientTransform="translate(402.006 333.639) rotate(-90) scale(173.639 226.017)">
<stop stop-color="#6D6986"/>
<stop offset="1" stop-color="#CDCDCD"/>
</radialGradient>
<radialGradient id="paint40_radial_175_105" cx="0" cy="0" r="1" gradientUnits="userSpaceOnUse" gradientTransform="translate(402.006 333.639) rotate(-90) scale(173.639 226.017)">
<stop stop-color="#6D6986"/>
<stop offset="1" stop-color="#CDCDCD"/>
</radialGradient>
<radialGradient id="paint41_radial_175_105" cx="0" cy="0" r="1" gradientUnits="userSpaceOnUse" gradientTransform="translate(402.006 333.639) rotate(-90) scale(173.639 226.017)">
<stop stop-color="#6D6986"/>
<stop offset="1" stop-color="#CDCDCD"/>
</radialGradient>
<radialGradient id="paint42_radial_175_105" cx="0" cy="0" r="1" gradientUnits="userSpaceOnUse" gradientTransform="translate(402.006 333.639) rotate(-90) scale(173.639 226.017)">
<stop stop-color="#6D6986"/>
<stop offset="1" stop-color="#CDCDCD"/>
</radialGradient>
<radialGradient id="paint43_radial_175_105" cx="0" cy="0" r="1" gradientUnits="userSpaceOnUse" gradientTransform="translate(402.006 333.639) rotate(-90) scale(173.639 226.017)">
<stop stop-color="#6D6986"/>
<stop offset="1" stop-color="#CDCDCD"/>
</radialGradient>
<radialGradient id="paint44_radial_175_105" cx="0" cy="0" r="1" gradientUnits="userSpaceOnUse" gradientTransform="translate(402.006 333.639) rotate(-90) scale(173.639 226.017)">
<stop stop-color="#6D6986"/>
<stop offset="1" stop-color="#CDCDCD"/>
</radialGradient>
<radialGradient id="paint45_radial_175_105" cx="0" cy="0" r="1" gradientUnits="userSpaceOnUse" gradientTransform="translate(402.006 333.639) rotate(-90) scale(173.639 226.017)">
<stop stop-color="#6D6986"/>
<stop offset="1" stop-color="#CDCDCD"/>
</radialGradient>
<radialGradient id="paint46_radial_175_105" cx="0" cy="0" r="1" gradientUnits="userSpaceOnUse" gradientTransform="translate(402.006 333.639) rotate(-90) scale(173.639 226.017)">
<stop stop-color="#6D6986"/>
<stop offset="1" stop-color="#CDCDCD"/>
</radialGradient>
<radialGradient id="paint47_radial_175_105" cx="0" cy="0" r="1" gradientUnits="userSpaceOnUse" gradientTransform="translate(402.006 333.639) rotate(-90) scale(173.639 226.017)">
<stop stop-color="#6D6986"/>
<stop offset="1" stop-color="#CDCDCD"/>
</radialGradient>
<radialGradient id="paint48_radial_175_105" cx="0" cy="0" r="1" gradientUnits="userSpaceOnUse" gradientTransform="translate(402.006 333.639) rotate(-90) scale(173.639 226.017)">
<stop stop-color="#6D6986"/>
<stop offset="1" stop-color="#CDCDCD"/>
</radialGradient>
<radialGradient id="paint49_radial_175_105" cx="0" cy="0" r="1" gradientUnits="userSpaceOnUse" gradientTransform="translate(402.006 333.639) rotate(-90) scale(173.639 226.017)">
<stop stop-color="#6D6986"/>
<stop offset="1" stop-color="#CDCDCD"/>
</radialGradient>
<radialGradient id="paint50_radial_175_105" cx="0" cy="0" r="1" gradientUnits="userSpaceOnUse" gradientTransform="translate(402.006 333.639) rotate(-90) scale(173.639 226.017)">
<stop stop-color="#6D6986"/>
<stop offset="1" stop-color="#CDCDCD"/>
</radialGradient>
<radialGradient id="paint51_radial_175_105" cx="0" cy="0" r="1" gradientUnits="userSpaceOnUse" gradientTransform="translate(402.006 333.639) rotate(-90) scale(173.639 226.017)">
<stop stop-color="#6D6986"/>
<stop offset="1" stop-color="#CDCDCD"/>
</radialGradient>
<radialGradient id="paint52_radial_175_105" cx="0" cy="0" r="1" gradientUnits="userSpaceOnUse" gradientTransform="translate(402.006 333.639) rotate(-90) scale(173.639 226.017)">
<stop stop-color="#6D6986"/>
<stop offset="1" stop-color="#CDCDCD"/>
</radialGradient>
<radialGradient id="paint53_radial_175_105" cx="0" cy="0" r="1" gradientUnits="userSpaceOnUse" gradientTransform="translate(402.006 333.639) rotate(-90) scale(173.639 226.017)">
<stop stop-color="#6D6986"/>
<stop offset="1" stop-color="#CDCDCD"/>
</radialGradient>
<radialGradient id="paint54_radial_175_105" cx="0" cy="0" r="1" gradientUnits="userSpaceOnUse" gradientTransform="translate(402.006 333.639) rotate(-90) scale(173.639 226.017)">
<stop stop-color="#6D6986"/>
<stop offset="1" stop-color="#CDCDCD"/>
</radialGradient>
</defs>
</svg>
